<svg xmlns="http://www.w3.org/2000/svg" viewBox="0 0 945.36 887.33"><defs><style>.cls-1{fill:#f8cb41}</style></defs><title>Asset 11234</title><g id="Layer_2" data-name="Layer 2"><g id="Layer_1-2" data-name="Layer 1"><path d="M945.27,877.09c-12.54,2.16-25,4.68-37.64,6.38s-25.08,3-37.65,3.41c-20.13.66-40.32.79-60.41-.93a660.29,660.29,0,0,1-94.52-15.31C660.82,857.92,609,838.18,557.32,817.76c-38.56-15.25-77.33-29.94-117.87-39.22a428,428,0,0,0-62.32-9.7,441,441,0,0,0-51.92-.57c-14.56.58-29,3.25-43.57,4.3-17.42,1.25-34.86,2.2-52.37.92-12.09-.89-24.18-1.61-36.17-3.42-43.73-6.62-84.24-21-118.87-49.43-37.83-31.09-59.36-71.58-69-119.06C.25,577.28-.88,552.71.61,528.13,3.3,484,14,441.48,29.81,400.26c19.19-50,44.44-96.84,72.82-142.11A982.09,982.09,0,0,1,267.81,60.29,853.31,853.31,0,0,1,338.22,2.14c.8-.58,1.77-1,2-2.05Q640.51.09,940.77,0c3.75,0,4.59.84,4.59,4.59Q945.21,440.85,945.27,877.09Z" class="cls-1"/></g></g></svg>